<svg width="60" height="60" viewBox="0 0 60 60" fill="none" xmlns="http://www.w3.org/2000/svg">
<rect width="60" height="60" fill="#1E2027"/>
<path d="M5 55H13.8235V53.0392H5V55Z" fill="#ED1C24"/>
<path d="M5 52.0588H13.8235V49.1177H5V52.0588Z" fill="#ED1C24"/>
<path d="M5 48.1372H13.8235V45.196H5V48.1372Z" fill="#ED1C24"/>
<path d="M5 44.2156H13.8235V42.2548H5V44.2156Z" fill="#F6836C"/>
<path d="M5 41.2744H13.8235V38.3332H5V41.2744Z" fill="#F6836C"/>
<path d="M14.804 55H24.6079V53.0392H14.804V55Z" fill="#FFF200"/>
<path d="M14.804 52.0588H24.6079V49.1177H14.804V52.0588Z" fill="#FFF200"/>
<path d="M14.804 48.1372H24.6079V45.196H14.804V48.1372Z" fill="#FFF200"/>
<path d="M25.5881 55H34.4117V53.0392H25.5881V55Z" fill="#EC008C"/>
<path d="M25.5881 52.0588H34.4117V49.1177H25.5881V52.0588Z" fill="#EC008C"/>
<path d="M25.5881 48.1372H34.4117V45.196H25.5881V48.1372Z" fill="#EC008C"/>
<path d="M25.5881 44.2156H34.4117V42.2548H25.5881V44.2156Z" fill="#F680C5"/>
<path d="M25.5881 41.2744H34.4117V38.3332H25.5881V41.2744Z" fill="#F680C5"/>
<path d="M25.5881 37.353H34.4117V34.4119H25.5881V37.353Z" fill="#F680C5"/>
<path d="M25.5881 33.4314H34.4117V31.4706H25.5881V33.4314Z" fill="#F680C5"/>
<path d="M35.3921 55H45.196V53.0392H35.3921V55Z" fill="#B2DB18"/>
<path d="M35.3921 52.0588H45.196V49.1177H35.3921V52.0588Z" fill="#B2DB18"/>
<path d="M35.3921 48.1372H45.196V45.196H35.3921V48.1372Z" fill="#B2DB18"/>
<path d="M35.3921 44.2156H45.196V42.2548H35.3921V44.2156Z" fill="#D9ED84"/>
<path d="M35.3921 41.2744H45.196V38.3332H35.3921V41.2744Z" fill="#D9ED84"/>
<path d="M46.1765 55H55V53.0392H46.1765V55Z" fill="#59CAF5"/>
<path d="M46.1765 52.0588H55V49.1177H46.1765V52.0588Z" fill="#59CAF5"/>
<path d="M46.1765 48.1372H55V45.196H46.1765V48.1372Z" fill="#59CAF5"/>
<path d="M46.1765 44.2156H55V42.2548H46.1765V44.2156Z" fill="#B2E6FA"/>
<path d="M46.1765 41.2744H55V38.3332H46.1765V41.2744Z" fill="#B2E6FA"/>
<path d="M46.1765 37.353H55V34.4119H46.1765V37.353Z" fill="#B2E6FA"/>
<path d="M46.1765 33.4314H55V31.4706H46.1765V33.4314Z" fill="#B2E6FA"/>
<path d="M46.1765 30.4902H55V27.5491H46.1765V30.4902Z" fill="#B2E6FA"/>
</svg>
