<?xml version="1.0" encoding="UTF-8" standalone="no"?>
<svg
   xmlns:dc="http://purl.org/dc/elements/1.1/"
   xmlns:cc="http://creativecommons.org/ns#"
   xmlns:rdf="http://www.w3.org/1999/02/22-rdf-syntax-ns#"
   xmlns:svg="http://www.w3.org/2000/svg"
   xmlns="http://www.w3.org/2000/svg"
   viewBox="0 0 68.97333 41.959999"
   height="41.959999"
   width="68.97333"
   xml:space="preserve"
   id="svg2"
   version="1.1"><metadata
     id="metadata8"><rdf:RDF><cc:Work
         rdf:about=""><dc:format>image/svg+xml</dc:format><dc:type
           rdf:resource="http://purl.org/dc/dcmitype/StillImage" /></cc:Work></rdf:RDF></metadata><defs
     id="defs6" /><g
     transform="matrix(1.3333333,0,0,-1.3333333,0,41.96)"
     id="g10"><g
       transform="scale(0.1)"
       id="g12"><path
         id="path14"
         style="fill:#ed1c24;fill-opacity:1;fill-rule:nonzero;stroke:none"
         d="M 0,0.0195313 H 93.543 V 28.367231 H 0 Z" /><path
         id="path16"
         style="fill:#ed1c24;fill-opacity:1;fill-rule:nonzero;stroke:none"
         d="M 0,36.8633 H 93.543 V 65.2149 H 0 Z" /><path
         id="path18"
         style="fill:#ed1c24;fill-opacity:1;fill-rule:nonzero;stroke:none"
         d="m 0,73.7109 h 93.543 v 28.3516 H 0 Z" /><path
         id="path20"
         style="fill:#f6836c;fill-opacity:1;fill-rule:nonzero;stroke:none"
         d="m 0,110.566 h 93.543 v 28.3398 H 0 Z" /><path
         id="path22"
         style="fill:#f6836c;fill-opacity:1;fill-rule:nonzero;stroke:none"
         d="m 0,147.422 h 93.543 v 28.3398 H 0 Z" /><path
         id="path24"
         style="fill:#fff200;fill-opacity:1;fill-rule:nonzero;stroke:none"
         d="m 104.883,0.0195313 h 93.5469 V 28.367231 H 104.883 Z" /><path
         id="path26"
         style="fill:#fff200;fill-opacity:1;fill-rule:nonzero;stroke:none"
         d="m 104.883,36.8633 h 93.5469 V 65.2149 H 104.883 Z" /><path
         id="path28"
         style="fill:#fff200;fill-opacity:1;fill-rule:nonzero;stroke:none"
         d="m 104.883,73.7109 h 93.5469 v 28.3516 H 104.883 Z" /><path
         id="path30"
         style="fill:#ec008c;fill-opacity:1;fill-rule:nonzero;stroke:none"
         d="m 209.766,0.0195313 h 93.5469 V 28.367231 H 209.766 Z" /><path
         id="path32"
         style="fill:#ec008c;fill-opacity:1;fill-rule:nonzero;stroke:none"
         d="m 209.766,36.8633 h 93.5469 V 65.2149 H 209.766 Z" /><path
         id="path34"
         style="fill:#ec008c;fill-opacity:1;fill-rule:nonzero;stroke:none"
         d="m 209.766,73.7109 h 93.5469 v 28.3516 H 209.766 Z" /><path
         id="path36"
         style="fill:#f680c5;fill-opacity:1;fill-rule:nonzero;stroke:none"
         d="m 209.766,110.566 h 93.5469 v 28.3398 H 209.766 Z" /><path
         id="path38"
         style="fill:#f680c5;fill-opacity:1;fill-rule:nonzero;stroke:none"
         d="m 209.766,147.422 h 93.5469 v 28.3398 H 209.766 Z" /><path
         id="path40"
         style="fill:#f680c5;fill-opacity:1;fill-rule:nonzero;stroke:none"
         d="m 209.766,184.27 h 93.5469 v 28.3477 H 209.766 Z" /><path
         id="path42"
         style="fill:#f680c5;fill-opacity:1;fill-rule:nonzero;stroke:none"
         d="m 209.766,221.113 h 93.5469 v 28.3516 H 209.766 Z" /><path
         id="path44"
         style="fill:#b2db18;fill-opacity:1;fill-rule:nonzero;stroke:none"
         d="m 314.648,0.0195313 h 93.543 V 28.367231 h -93.543 z" /><path
         id="path46"
         style="fill:#b2db18;fill-opacity:1;fill-rule:nonzero;stroke:none"
         d="m 314.648,36.8633 h 93.543 v 28.3516 h -93.543 z" /><path
         id="path48"
         style="fill:#b2db18;fill-opacity:1;fill-rule:nonzero;stroke:none"
         d="m 314.648,73.7109 h 93.543 v 28.3516 h -93.543 z" /><path
         id="path50"
         style="fill:#d9ed84;fill-opacity:1;fill-rule:nonzero;stroke:none"
         d="m 314.648,110.566 h 93.543 v 28.3398 h -93.543 z" /><path
         id="path52"
         style="fill:#d9ed84;fill-opacity:1;fill-rule:nonzero;stroke:none"
         d="m 314.648,147.422 h 93.543 v 28.3398 h -93.543 z" /><path
         id="path54"
         style="fill:#59caf5;fill-opacity:1;fill-rule:nonzero;stroke:none"
         d="m 419.531,0.0195313 h 93.5508 V 28.367231 H 419.531 Z" /><path
         id="path56"
         style="fill:#59caf5;fill-opacity:1;fill-rule:nonzero;stroke:none"
         d="m 419.531,36.8633 h 93.5508 V 65.2149 H 419.531 Z" /><path
         id="path58"
         style="fill:#59caf5;fill-opacity:1;fill-rule:nonzero;stroke:none"
         d="m 419.531,73.7227 h 93.5508 v 28.3477 H 419.531 Z" /><path
         id="path60"
         style="fill:#b2e6fa;fill-opacity:1;fill-rule:nonzero;stroke:none"
         d="m 419.531,110.566 h 93.5508 v 28.3516 H 419.531 Z" /><path
         id="path62"
         style="fill:#b2e6fa;fill-opacity:1;fill-rule:nonzero;stroke:none"
         d="m 419.531,147.422 h 93.5508 v 28.3516 H 419.531 Z" /><path
         id="path64"
         style="fill:#b2e6fa;fill-opacity:1;fill-rule:nonzero;stroke:none"
         d="m 419.531,184.277 h 93.5508 v 28.3398 H 419.531 Z" /><path
         id="path66"
         style="fill:#b2e6fa;fill-opacity:1;fill-rule:nonzero;stroke:none"
         d="m 419.531,221.133 h 93.5508 v 28.3398 H 419.531 Z" /><path
         id="path68"
         style="fill:#b2e6fa;fill-opacity:1;fill-rule:nonzero;stroke:none"
         d="m 419.531,257.98 h 93.5508 v 28.3477 H 419.531 Z" /></g></g></svg>