<svg width="60" height="60" viewBox="0 0 60 60" fill="none" xmlns="http://www.w3.org/2000/svg">
<path d="M60 0H0V60H60V0Z" fill="#1E2027"/>
<path d="M46.2634 27.7518L15.9332 10.518C14.6374 9.79021 13.4781 9.85838 12.7731 10.5405C12.2732 11.0181 12 11.7913 12 12.7918V47.1911C12 48.1921 12.2955 48.9653 12.7731 49.4424C13.5007 50.1473 14.6374 50.2155 15.9332 49.4648L46.2634 32.2308C48.4466 31.0031 48.4466 29.0026 46.2634 27.7518Z" fill="#F1471D"/>
<path d="M43.6703 33.7449C44.0346 32.4946 44.2166 31.1528 44.2166 29.7891C44.2166 21.763 37.6906 15.2378 29.665 15.2378C21.6391 15.2378 15.1138 21.763 15.1138 29.7891C15.1138 36.5189 19.6839 42.1801 25.8909 43.8402L43.6703 33.7449Z" fill="#FCD117"/>
<path d="M39.045 30.003C39.045 35.0256 34.9737 39.0975 29.9505 39.0975C24.9275 39.0975 20.856 35.0256 20.856 30.003C20.856 24.98 24.9275 20.9084 29.9505 20.9084C34.9736 20.9084 39.045 24.9799 39.045 30.003Z" fill="#F48B15"/>
<path d="M29.9504 25.2286V30.8209C29.632 30.6397 29.2683 30.5257 28.8817 30.5257C27.6997 30.5257 26.7673 31.4812 26.7673 32.64C26.7673 33.8229 27.7221 34.7549 28.8817 34.7549C30.0644 34.7549 31.0873 33.7995 31.0873 32.64V27.5021H33.1334V25.2285H29.9504V25.2286Z" fill="white"/>
</svg>
