<svg width="60" height="60" viewBox="0 0 60 60" fill="none" xmlns="http://www.w3.org/2000/svg">
<mask id="mask0" mask-type="alpha" maskUnits="userSpaceOnUse" x="0" y="0" width="60" height="60">
<rect width="60" height="60" fill="#C4C4C4"/>
</mask>
<g mask="url(#mask0)">
<path d="M30.0131 -13C13.3134 -13 8.42942 -12.9828 7.48006 -12.904C4.05302 -12.619 1.92049 -12.0793 -0.402761 -10.9223C-2.19319 -10.033 -3.60524 -9.00212 -4.99882 -7.55708C-7.5368 -4.92178 -9.07498 -1.67966 -9.6318 2.17421C-9.90251 4.04513 -9.98127 4.42671 -9.99727 13.9832C-10.0034 17.1687 -9.99727 21.3611 -9.99727 26.9843C-9.99727 43.6749 -9.97881 48.5554 -9.89882 49.5031C-9.62195 52.8388 -9.09897 54.9374 -7.99149 57.233C-5.87496 61.6272 -1.83265 64.926 2.92954 66.1569C4.57846 66.5815 6.39965 66.8154 8.73767 66.9261C9.72826 66.9692 19.8248 67 29.9275 67C40.0302 67 50.133 66.9877 51.0989 66.9385C53.8061 66.8111 55.3781 66.6 57.1163 66.1507C61.9092 64.9137 65.8777 61.6642 68.0373 57.2084C69.1232 54.9682 69.6739 52.7896 69.9231 49.6281C69.9772 48.9388 70 37.9489 70 26.9738C70 15.9969 69.9754 5.02737 69.9213 4.33808C69.669 1.1255 69.1183 -1.03468 67.9973 -3.31795C67.0775 -5.18703 66.0561 -6.58284 64.5733 -8.01004C61.9271 -10.5383 58.6907 -12.0768 54.8342 -12.6332C52.9657 -12.9034 52.5934 -12.9834 43.0321 -13H30.0131Z" fill="url(#paint0_radial)"/>
<path d="M30.0017 10C24.57 10 23.8883 10.0238 21.755 10.1208C19.6258 10.2183 18.1725 10.5554 16.9008 11.05C15.5854 11.5608 14.4696 12.2442 13.3579 13.3563C12.2454 14.4679 11.5621 15.5837 11.0496 16.8987C10.5537 18.1708 10.2162 19.6246 10.1204 21.7529C10.025 23.8862 10 24.5683 10 30C10 35.4317 10.0242 36.1113 10.1208 38.2446C10.2188 40.3738 10.5558 41.8271 11.05 43.0987C11.5613 44.4142 12.2446 45.53 13.3567 46.6417C14.4679 47.7542 15.5838 48.4392 16.8983 48.95C18.1708 49.4446 19.6246 49.7817 21.7533 49.8792C23.8867 49.9762 24.5679 50 29.9992 50C35.4313 50 36.1108 49.9762 38.2442 49.8792C40.3733 49.7817 41.8283 49.4446 43.1008 48.95C44.4158 48.4392 45.53 47.7542 46.6413 46.6417C47.7538 45.53 48.4371 44.4142 48.9496 43.0992C49.4413 41.8271 49.7788 40.3733 49.8788 38.245C49.9746 36.1117 49.9996 35.4317 49.9996 30C49.9996 24.5683 49.9746 23.8867 49.8788 21.7533C49.7788 19.6242 49.4413 18.1708 48.9496 16.8992C48.4371 15.5837 47.7538 14.4679 46.6413 13.3563C45.5288 12.2438 44.4163 11.5604 43.0996 11.05C41.8246 10.5554 40.3704 10.2183 38.2413 10.1208C36.1079 10.0238 35.4288 10 29.9954 10H30.0017ZM28.2075 13.6042C28.74 13.6033 29.3342 13.6042 30.0017 13.6042C35.3417 13.6042 35.9746 13.6233 38.0833 13.7192C40.0333 13.8083 41.0917 14.1342 41.7967 14.4079C42.73 14.7704 43.3954 15.2037 44.095 15.9037C44.795 16.6037 45.2283 17.2704 45.5917 18.2037C45.8654 18.9079 46.1917 19.9662 46.2804 21.9162C46.3763 24.0246 46.3971 24.6579 46.3971 29.9954C46.3971 35.3329 46.3763 35.9662 46.2804 38.0746C46.1913 40.0246 45.8654 41.0829 45.5917 41.7871C45.2292 42.7204 44.795 43.385 44.095 44.0846C43.395 44.7846 42.7304 45.2179 41.7967 45.5804C41.0925 45.8554 40.0333 46.1804 38.0833 46.2696C35.975 46.3654 35.3417 46.3863 30.0017 46.3863C24.6612 46.3863 24.0283 46.3654 21.92 46.2696C19.97 46.1796 18.9117 45.8537 18.2063 45.58C17.2729 45.2175 16.6062 44.7842 15.9062 44.0842C15.2062 43.3842 14.7729 42.7192 14.4096 41.7854C14.1358 41.0813 13.8096 40.0229 13.7208 38.0729C13.625 35.9646 13.6058 35.3312 13.6058 29.9904C13.6058 24.6496 13.625 24.0196 13.7208 21.9113C13.81 19.9613 14.1358 18.9029 14.4096 18.1979C14.7721 17.2646 15.2062 16.5979 15.9062 15.8979C16.6062 15.1979 17.2729 14.7646 18.2063 14.4012C18.9113 14.1262 19.97 13.8013 21.92 13.7117C23.765 13.6283 24.48 13.6033 28.2075 13.5992V13.6042ZM40.6775 16.925C39.3525 16.925 38.2775 17.9987 38.2775 19.3242C38.2775 20.6492 39.3525 21.7242 40.6775 21.7242C42.0025 21.7242 43.0775 20.6492 43.0775 19.3242C43.0775 17.9992 42.0025 16.9242 40.6775 16.9242V16.925ZM30.0017 19.7292C24.3296 19.7292 19.7308 24.3279 19.7308 30C19.7308 35.6721 24.3296 40.2687 30.0017 40.2687C35.6738 40.2687 40.2708 35.6721 40.2708 30C40.2708 24.3279 35.6733 19.7292 30.0013 19.7292H30.0017ZM30.0017 23.3333C33.6833 23.3333 36.6683 26.3179 36.6683 30C36.6683 33.6817 33.6833 36.6667 30.0017 36.6667C26.3196 36.6667 23.335 33.6817 23.335 30C23.335 26.3179 26.3196 23.3333 30.0017 23.3333V23.3333Z" fill="white"/>
</g>
<defs>
<radialGradient id="paint0_radial" cx="0" cy="0" r="1" gradientUnits="userSpaceOnUse" gradientTransform="translate(11.2501 73.1617) rotate(-90) scale(79.2859 73.7421)">
<stop stop-color="#FFDD55"/>
<stop offset="0.1" stop-color="#FFDD55"/>
<stop offset="0.5" stop-color="#FF543E"/>
<stop offset="1" stop-color="#C837AB"/>
</radialGradient>
</defs>
</svg>
