<svg width="60" height="60" viewBox="0 0 60 60" fill="none" xmlns="http://www.w3.org/2000/svg">
<path d="M60 0H0V60H60V0Z" fill="#1E2027"/>
<path d="M30 50C41.0457 50 50 41.0457 50 30C50 18.9543 41.0457 10 30 10C18.9543 10 10 18.9543 10 30C10 41.0457 18.9543 50 30 50Z" fill="url(#paint0_linear)"/>
<g opacity="0.192" filter="url(#filter0_f)">
<path d="M30.1502 13.7305C25.8016 13.7305 21.6311 15.458 18.5561 18.5329C15.4812 21.6079 13.7537 25.7784 13.7537 30.127C13.7537 34.4757 15.4812 38.6462 18.5561 41.7211C21.6311 44.7961 25.8016 46.5236 30.1502 46.5236C34.4989 46.5236 38.6694 44.7961 41.7443 41.7211C44.8193 38.6462 46.5468 34.4757 46.5468 30.127C46.5468 25.7784 44.8193 21.6079 41.7443 18.5329C38.6694 15.458 34.4989 13.7305 30.1502 13.7305V13.7305ZM38.368 16.9845C38.7557 16.9842 39.0404 17.2017 39.1512 17.5833C39.1897 17.7162 39.1992 20.1509 39.1893 27.2792L39.1762 36.7977L39.0762 37.1527C38.7367 38.3599 37.9078 39.2145 36.7337 39.567C35.9039 39.8162 34.6914 39.9086 34.0959 39.7683C33.5658 39.6434 33.1816 39.4218 32.7612 38.9989C32.1497 38.3838 31.8785 37.7553 31.8771 36.9511C31.8765 36.5013 31.9562 36.1626 32.1693 35.7108C32.4706 35.072 32.8606 34.6874 33.5627 34.3364C34.1249 34.0554 34.6275 33.9097 36.0959 33.603C37.0609 33.4014 37.2959 33.3149 37.484 33.0914C37.7426 32.784 37.7369 32.8982 37.7237 28.0277C37.7122 23.7961 37.7075 23.5636 37.6305 23.4461C37.5164 23.2719 37.2785 23.182 37.0271 23.218C36.76 23.2561 27.2649 25.1773 27.028 25.2411C26.7648 25.312 26.5743 25.5213 26.513 25.8067C26.4769 25.9751 26.4627 27.8423 26.4624 32.4398C26.4621 39.5011 26.4679 39.341 26.1855 40.0914C26.105 40.3055 25.9606 40.6006 25.8646 40.747C25.6221 41.1172 25.1559 41.5676 24.7934 41.782C23.9262 42.2951 22.2308 42.559 21.3252 42.3217C20.3658 42.0703 19.6531 41.4171 19.3318 40.4955C19.1778 40.0538 19.1416 39.3272 19.2496 38.8417C19.3626 38.3337 19.6242 37.8497 19.9771 37.4952C20.5988 36.8706 21.3336 36.5803 23.3121 36.1773C23.7392 36.0904 24.1797 35.9892 24.2912 35.9527C24.5263 35.8755 24.7813 35.6332 24.8962 35.3777C24.9717 35.2097 24.9774 34.7996 24.9984 27.7452L25.0205 20.2902L25.1243 20.0795C25.2468 19.8308 25.505 19.5965 25.7655 19.498C25.9339 19.4343 35.7948 17.4243 37.4677 17.1127C37.846 17.0422 38.2511 16.9846 38.368 16.9845H38.368Z" fill="black"/>
</g>
<path d="M29.9999 11.6799C25.1412 11.6799 20.4814 13.6101 17.0457 17.0457C13.6101 20.4814 11.6799 25.1412 11.6799 29.9999C11.6799 34.8587 13.6101 39.5185 17.0457 42.9541C20.4814 46.3898 25.1412 48.3199 29.9999 48.3199C32.4058 48.3199 34.788 47.8461 37.0107 46.9254C39.2334 46.0047 41.253 44.6553 42.9541 42.9541C44.6553 41.253 46.0047 39.2334 46.9254 37.0107C47.8461 34.788 48.3199 32.4058 48.3199 29.9999C48.3199 27.5941 47.8461 25.2119 46.9254 22.9892C46.0047 20.7665 44.6553 18.7469 42.9541 17.0457C41.253 15.3446 39.2334 13.9951 37.0107 13.0745C34.788 12.1538 32.4058 11.6799 29.9999 11.6799V11.6799ZM38.2177 16.8574C38.6054 16.8571 38.8901 17.0746 39.0009 17.4562C39.0395 17.5891 39.0489 20.0238 39.039 27.1521L39.0259 36.6706L38.9259 37.0256C38.5864 38.2328 37.7575 39.0874 36.5834 39.4399C35.7536 39.6891 34.5411 39.7815 33.9456 39.6412C33.4155 39.5163 33.0313 39.2947 32.6109 38.8718C31.9994 38.2567 31.7282 37.6282 31.7268 36.824C31.7262 36.3742 31.8059 36.0355 32.019 35.5837C32.3203 34.9449 32.7103 34.5603 33.4124 34.2093C33.9746 33.9283 34.4772 33.7826 35.9456 33.4759C36.9106 33.2743 37.1456 33.1878 37.3337 32.9643C37.5923 32.6569 37.5866 32.7711 37.5734 27.9006C37.5619 23.669 37.5572 23.4365 37.4802 23.319C37.3661 23.1448 37.1282 23.0549 36.8768 23.0909C36.6098 23.129 27.1146 25.0502 26.8777 25.114C26.6145 25.1849 26.424 25.3942 26.3627 25.6796C26.3266 25.848 26.3124 27.7152 26.3121 32.3127C26.3118 39.374 26.3176 39.2139 26.0352 39.9643C25.9547 40.1784 25.8103 40.4735 25.7143 40.6199C25.4718 40.9901 25.0056 41.4405 24.6431 41.6549C23.776 42.168 22.0805 42.4319 21.1749 42.1946C20.2155 41.9432 19.5028 41.29 19.1815 40.3684C19.0275 39.9267 18.9913 39.2001 19.0993 38.7146C19.2123 38.2066 19.4739 37.7226 19.8268 37.3681C20.4485 36.7435 21.1833 36.4532 23.1618 36.0502C23.5889 35.9633 24.0294 35.8621 24.1409 35.8256C24.376 35.7484 24.631 35.5061 24.7459 35.2506C24.8214 35.0826 24.8271 34.6725 24.8481 27.6181L24.8702 20.1631L24.974 19.9524C25.0965 19.7037 25.3547 19.4694 25.6152 19.3709C25.7836 19.3072 35.6445 17.2972 37.3174 16.9856C37.6957 16.9151 38.1008 16.8575 38.2177 16.8574Z" fill="white"/>
<defs>
<filter id="filter0_f" x="11.7041" y="11.6809" width="36.8923" height="36.8923" filterUnits="userSpaceOnUse" color-interpolation-filters="sRGB">
<feFlood flood-opacity="0" result="BackgroundImageFix"/>
<feBlend mode="normal" in="SourceGraphic" in2="BackgroundImageFix" result="shape"/>
<feGaussianBlur stdDeviation="1.02479" result="effect1_foregroundBlur"/>
</filter>
<linearGradient id="paint0_linear" x1="20.1155" y1="14.3451" x2="42.8696" y2="43.8784" gradientUnits="userSpaceOnUse">
<stop stop-color="#FF5E50"/>
<stop offset="0.249038" stop-color="#FE5C6C"/>
<stop offset="0.376518" stop-color="#E3658A"/>
<stop offset="0.496954" stop-color="#B87EB0"/>
<stop offset="0.626674" stop-color="#916CFF"/>
<stop offset="0.762798" stop-color="#70BCFB" stop-opacity="0.919192"/>
<stop offset="1" stop-color="#21C7FE"/>
</linearGradient>
</defs>
</svg>
