<svg width="60" height="60" viewBox="0 0 60 60" fill="none" xmlns="http://www.w3.org/2000/svg">
<path d="M60 0H0V60H60V0Z" fill="#1E2027"/>
<path d="M29.9999 10C18.9545 10 10 18.9544 10 30.0001C10 41.0463 18.9545 50 29.9999 50C41.0464 50 50 41.0463 50 30.0001C50 18.9552 41.0464 10.001 29.9997 10.001L29.9999 10ZM39.1717 38.8459C38.8135 39.4335 38.0444 39.6197 37.457 39.2591C32.7611 36.3907 26.8498 35.7411 19.8881 37.3317C19.2172 37.4846 18.5485 37.0643 18.3957 36.3931C18.2421 35.722 18.6607 35.0533 19.3333 34.9004C26.9517 33.1591 33.4867 33.9093 38.7585 37.1311C39.346 37.4917 39.5323 38.2583 39.1717 38.8459ZM41.6196 33.3994C41.1683 34.1338 40.2082 34.3655 39.475 33.9141C34.099 30.6089 25.9043 29.6519 19.5456 31.5822C18.721 31.8312 17.8499 31.3664 17.5997 30.5432C17.3512 29.7185 17.8163 28.8492 18.6395 28.5984C25.9029 26.3945 34.9325 27.4621 41.1062 31.2559C41.8394 31.7073 42.071 32.6674 41.6196 33.3997V33.3994ZM41.8298 27.7286C35.3839 23.8999 24.749 23.5479 18.5948 25.4157C17.6065 25.7155 16.5615 25.1576 16.262 24.1693C15.9625 23.1805 16.5199 22.1362 17.5089 21.8357C24.5736 19.691 36.3177 20.1054 43.739 24.511C44.6298 25.0387 44.9211 26.1867 44.3934 27.0744C43.8679 27.9634 42.7168 28.2564 41.8308 27.7286H41.8298Z" fill="#1ED760"/>
</svg>
