<svg width="60" height="60" viewBox="0 0 60 60" fill="none" xmlns="http://www.w3.org/2000/svg">
<rect width="60" height="60" fill="white"/>
<path fill-rule="evenodd" clip-rule="evenodd" d="M39.527 37.34C39.249 37.34 39.049 37.418 38.927 37.584C38.806 37.739 38.747 38.008 38.747 38.38V39.276H40.29V38.38C40.29 38.009 40.228 37.74 40.105 37.584C39.989 37.418 39.792 37.34 39.527 37.34ZM33.509 37.308C33.743 37.308 33.926 37.386 34.053 37.539C34.176 37.693 34.238 37.922 34.238 38.222V42.805C34.238 43.091 34.185 43.292 34.085 43.416C33.985 43.543 33.829 43.606 33.615 43.606C33.467 43.606 33.328 43.572 33.194 43.509C33.059 43.447 32.92 43.339 32.779 43.196V37.665C32.898 37.543 33.018 37.452 33.139 37.394C33.26 37.335 33.383 37.308 33.509 37.308ZM38.748 40.657V42.33C38.748 42.798 38.805 43.121 38.918 43.304C39.036 43.484 39.231 43.573 39.51 43.573C39.799 43.573 40.001 43.497 40.116 43.344C40.23 43.191 40.291 42.854 40.291 42.331V41.927H42.086V42.382C42.086 43.293 41.869 43.979 41.429 44.442C40.994 44.9 40.34 45.128 39.471 45.128C38.69 45.128 38.073 44.886 37.624 44.397C37.176 43.911 36.948 43.24 36.948 42.383V38.397C36.948 37.629 37.197 36.999 37.69 36.515C38.183 36.031 38.818 35.788 39.601 35.788C40.4 35.788 41.014 36.013 41.444 36.462C41.873 36.91 42.086 37.555 42.086 38.397V40.66H38.748V40.657ZM35.623 44.495C35.352 44.831 34.954 44.996 34.436 44.996C34.093 44.996 33.79 44.934 33.524 44.805C33.257 44.675 33.005 44.476 32.778 44.203V44.884H31.014V32.852H32.778V36.726C33.015 36.457 33.263 36.249 33.526 36.11C33.793 35.969 34.06 35.899 34.331 35.899C34.885 35.899 35.306 36.088 35.596 36.464C35.89 36.843 36.034 37.398 36.034 38.124V43.05C36.034 43.678 35.897 44.159 35.623 44.495ZM27.958 44.884V43.908C27.633 44.269 27.3 44.544 26.949 44.73C26.6 44.921 26.263 45.013 25.935 45.013C25.53 45.013 25.23 44.883 25.022 44.617C24.821 44.351 24.717 43.959 24.717 43.428V36.006H26.461V42.816C26.461 43.027 26.498 43.178 26.568 43.271C26.645 43.367 26.764 43.413 26.926 43.413C27.054 43.413 27.218 43.351 27.414 43.225C27.611 43.1 27.789 42.943 27.956 42.75V36.006H29.7V44.884H27.958V44.884ZM21.916 34.6V44.884H19.948V34.6H17.914V32.852H23.95V34.6H21.916ZM29.994 28.979C29.994 28.977 42.074 28.997 43.508 30.429C44.947 31.863 44.963 38.942 44.963 38.983C44.963 38.983 44.951 46.1 43.508 47.539C42.074 48.969 29.994 49 29.994 49C29.994 49 17.915 48.969 16.478 47.538C15.04 46.104 15.037 39.036 15.037 38.982C15.037 38.942 15.041 31.862 16.478 30.428C17.916 28.996 29.994 28.977 29.994 28.979ZM39.52 25.255H37.554V24.175C37.196 24.572 36.818 24.878 36.424 25.084C36.032 25.292 35.653 25.396 35.284 25.396C34.826 25.396 34.487 25.25 34.257 24.958C34.028 24.667 33.912 24.231 33.912 23.647V15.474H35.874V22.971C35.874 23.202 35.919 23.37 36.001 23.473C36.081 23.577 36.217 23.629 36.4 23.629C36.543 23.629 36.727 23.561 36.948 23.423C37.168 23.286 37.371 23.111 37.553 22.897V15.474H39.519V25.255H39.52ZM28.847 23.588C28.986 23.735 29.186 23.807 29.447 23.807C29.713 23.807 29.923 23.733 30.081 23.584C30.238 23.432 30.316 23.226 30.316 22.966V17.639C30.316 17.425 30.236 17.252 30.075 17.12C29.915 16.989 29.705 16.924 29.447 16.924C29.206 16.924 29.012 16.989 28.861 17.12C28.713 17.252 28.636 17.425 28.636 17.639V22.966C28.636 23.233 28.708 23.439 28.847 23.588ZM27.408 15.903C27.936 15.454 28.649 15.228 29.54 15.228C30.352 15.228 31.02 15.465 31.541 15.94C32.058 16.413 32.318 17.023 32.318 17.767V22.819C32.318 23.655 32.063 24.309 31.556 24.787C31.043 25.263 30.344 25.501 29.45 25.501C28.592 25.501 27.903 25.255 27.386 24.765C26.873 24.274 26.614 23.613 26.614 22.782V17.714C26.613 16.954 26.877 16.351 27.408 15.903ZM21.262 12H19.033L21.667 20.003V25.255H23.88V19.755L26.454 12H24.204L22.838 17.298H22.699L21.262 12ZM0 0H60V60H0V0Z" fill="#CF3427"/>
</svg>
