<svg width="240" height="240" xmlns="http://www.w3.org/2000/svg" preserveAspectRatio="xMidYMid meet">

 <g>
  <title>background</title>
  <rect fill="none" id="canvas_background" height="602" width="802" y="-1" x="-1"/>
 </g>
 <g>
  <title>Layer 1</title>
  <rect stroke="#000" id="svg_4" height="278.99998" width="266.00001" y="-21.99999" x="-18.5" stroke-width="1.5" fill="#1e2027"/>
  <g id="svg_1" fill="#000000" transform="translate(0,240) scale(0.10000000149011612,-0.10000000149011612) ">
   <path stroke="null" fill="#fc0404" id="svg_2" d="m1102.2043,2111.65415c-289.11556,-39.71869 -547.6013,-221.82512 -679.08538,-478.87247c-69.47738,-135.64306 -97.11892,-254.04971 -97.11892,-412.17505c0,-192.59816 43.32998,-337.98354 148.66666,-499.10652c129.24287,-195.5958 333.19261,-332.73768 571.5075,-382.19869c86.65996,-18.73523 256.99161,-18.73523 343.65157,0c238.31489,50.21042 441.51756,185.85348 571.5075,382.19869c105.33668,161.12298 148.66666,306.50836 148.66666,499.10652c0,75.69033 -3.73534,128.14897 -13.44724,172.36411c-75.45393,361.96464 -345.89277,634.74958 -702.99158,708.19168c-73.21273,14.98818 -220.38524,20.23405 -291.35676,10.49173zm209.17921,-430.16087c160.61975,-33.72341 298.82745,-157.37593 351.86932,-315.50127c120.27805,-359.71641 -231.59127,-712.68814 -590.18421,-592.03326c-200.96146,68.19624 -336.92795,267.53908 -323.48071,474.37602c4.48241,66.69742 31.37688,156.62652 62.75376,210.58398c27.64154,47.21278 100.1072,122.90311 147.17252,154.37829c103.09547,68.19624 231.59127,93.67615 351.86932,68.19624z"/>
   <path stroke="null" fill="#fc0404" id="svg_3" d="m1107.43378,1632.78168c-73.95979,-19.48464 -129.98994,-52.45864 -189.00836,-111.66197c-59.76549,-60.70214 -91.88944,-116.15842 -111.31322,-192.59816c-18.67672,-73.4421 -18.67672,-142.38775 0,-215.82985c20.17085,-80.18678 47.06532,-126.65015 108.32495,-188.85112c62.75376,-63.69978 117.28977,-95.92438 194.98491,-115.40901c316.01003,-80.93619 599.14904,203.08989 518.46562,520.08998c-8.21775,32.2246 -25.40033,77.18915 -38.84757,101.17024c-30.62981,53.95746 -109.81909,133.39484 -163.60803,164.12061c-90.3953,51.70923 -214.4087,66.69742 -318.9983,38.96928zm148.66666,-290.02136c155.39027,-87.68087 192.7437,-111.66197 184.52595,-118.40665c-11.9531,-11.24114 -376.52259,-236.06389 -382.49914,-236.06389c-2.24121,0 -4.48241,104.91729 -4.48241,232.31685c0,128.14897 2.24121,232.31685 4.48241,232.31685c2.24121,0 91.14237,-49.46101 197.97319,-110.16315z"/>
  </g>
 </g>
</svg>